<svg width="20" height="20" viewBox="0 0 20 20" fill="none" xmlns="http://www.w3.org/2000/svg">
<path d="M0.439987 3.09555C-0.146662 2.5089 -0.146662 1.55775 0.439987 0.971099L0.971099 0.439987C1.55775 -0.146662 2.5089 -0.146662 3.09555 0.439987L19.56 16.9044C20.1467 17.4911 20.1467 18.4422 19.56 19.0289L19.0289 19.56C18.4422 20.1467 17.4911 20.1467 16.9044 19.56L0.439987 3.09555Z" fill="white"/>
<path d="M16.9045 0.439987C17.4911 -0.146662 18.4423 -0.146662 19.0289 0.439987L19.56 0.971099C20.1467 1.55775 20.1467 2.5089 19.56 3.09555L3.09555 19.56C2.50891 20.1467 1.55776 20.1467 0.971108 19.56L0.439996 19.0289C-0.146654 18.4422 -0.146653 17.4911 0.439996 16.9044L16.9045 0.439987Z" fill="white"/>
</svg>
