<svg width="30" height="29" viewBox="0 0 30 29" fill="none" xmlns="http://www.w3.org/2000/svg">
<path d="M18.7485 11.2491H17.8111V9.37426C17.8111 7.3063 16.1294 5.62455 14.0614 5.62455C11.9934 5.62455 10.3117 7.3063 10.3117 9.37426V11.2491H9.37427C8.85681 11.2491 8.43684 11.6691 8.43684 12.1865V19.686C8.43684 20.2034 8.85681 20.6234 9.37427 20.6234H18.7485C19.266 20.6234 19.686 20.2034 19.686 19.686V12.1865C19.686 11.6691 19.266 11.2491 18.7485 11.2491ZM12.1865 9.37426C12.1865 8.34122 13.0265 7.49941 14.0614 7.49941C15.0963 7.49941 15.9363 8.34122 15.9363 9.37426V11.2491H12.1865V9.37426ZM17.8111 18.7485H10.3117V13.124H17.8111V18.7485Z" fill="white"/>
<path d="M29.4108 8.50434C28.929 8.31123 28.3834 8.54558 28.194 9.02742L27.6335 10.4298C26.023 4.43215 20.5578 0 14.0614 0C6.30701 0 0 6.30701 0 14.0614C0 21.8158 6.30701 28.1228 14.0614 28.1228C17.8167 28.1228 21.3471 26.6604 24.0056 24.0038C24.3712 23.6382 24.3712 23.0438 24.0056 22.6782C23.64 22.3126 23.0457 22.3126 22.6801 22.6782C20.3759 24.9806 17.3143 26.248 14.0614 26.248C7.34193 26.248 1.87485 20.7809 1.87485 14.0614C1.87485 7.34193 7.34193 1.87485 14.0614 1.87485C19.9128 1.87485 24.8118 6.02203 25.9798 11.5303L24.0994 9.648C23.7338 9.2824 23.1394 9.2824 22.7738 9.648C22.4083 10.0136 22.4083 10.6079 22.7738 10.9735L26.5236 14.7232C26.5442 14.7438 26.5723 14.7513 26.5948 14.7701C26.666 14.8301 26.7392 14.8882 26.8254 14.9238C26.9379 14.9745 27.0616 14.9988 27.1854 14.9988C27.2472 14.9988 27.311 14.9932 27.3747 14.9801C27.401 14.9745 27.4197 14.9538 27.4441 14.9463C27.5397 14.9182 27.626 14.8751 27.7066 14.8207C27.7422 14.7963 27.7778 14.7795 27.8097 14.7513C27.9128 14.6576 27.9991 14.547 28.0534 14.4157C28.0534 14.4157 28.0553 14.412 28.0572 14.4101L29.932 9.72299C30.1251 9.24303 29.8927 8.69744 29.4108 8.50434Z" fill="white"/>
</svg>
