<svg width="17" height="15" viewBox="0 0 17 15" fill="none" xmlns="http://www.w3.org/2000/svg">
<path d="M16.2677 3.70712C16.2591 3.62427 16.2255 3.54113 16.1663 3.47196C16.1434 3.44521 16.3771 3.67077 12.68 0.128851C12.5919 0.0444184 12.4723 9.27883e-05 12.3555 0.000122085C12.0774 0.000122085 2.26632 0.000122085 1.98921 0.000122085C1.23044 0.000122085 0.613129 0.59153 0.613129 1.31846V13.6816C0.613129 14.4085 1.23044 14.9999 1.98921 14.9999H14.8938C15.6525 14.9999 16.2699 14.4085 16.2699 13.6816C16.2699 3.01221 16.2711 3.74081 16.2677 3.70712ZM11.1631 0.879016V3.75007C11.1631 3.99238 10.9573 4.18952 10.7044 4.18952H10.1234V0.879016H11.1631ZM9.20601 0.879016V4.18952H4.95546C4.70253 4.18952 4.49676 3.99238 4.49676 3.75007V0.879016H9.20601ZM11.1631 9.40429H4.49676V8.84766C4.49676 8.60535 4.70253 8.40821 4.95546 8.40821H10.7044C10.9573 8.40821 11.1631 8.60535 11.1631 8.84766V9.40429ZM4.49676 14.121V10.2832H11.1631V14.121H4.49676ZM15.3525 13.6816C15.3525 13.9239 15.1467 14.121 14.8938 14.121H12.0805C12.0805 13.5481 12.0805 9.50073 12.0805 8.84766C12.0805 8.12072 11.4632 7.52932 10.7044 7.52932H4.95546C4.19669 7.52932 3.57938 8.12072 3.57938 8.84766V14.121H1.98924C1.73632 14.121 1.53055 13.9239 1.53055 13.6816V1.31846C1.53055 1.07615 1.73632 0.879016 1.98924 0.879016H3.57938V3.75007C3.57938 4.477 4.19669 5.06841 4.95546 5.06841H10.7044C11.4632 5.06841 12.0805 4.477 12.0805 3.75007V0.879016H12.1657L15.3525 3.93212V13.6816Z" fill="white"/>
</svg>
